<svg width="65" height="30" viewBox="0 0 65 30" fill="none" xmlns="http://www.w3.org/2000/svg">
<path fill-rule="evenodd" clip-rule="evenodd" d="M36.0331 6.88043L33.2154 2L30.3977 6.88043H31.6952V19.0492C31.6952 19.5987 31.8326 20.1048 32.1074 20.5676C32.3821 21.0158 32.7436 21.3773 33.1919 21.6521C33.6546 21.9268 34.1608 22.0642 34.7103 22.0642H44.2976C44.8471 22.0642 45.346 21.9268 45.7943 21.6521C46.257 21.3773 46.6257 21.0158 46.9005 20.5676C47.1752 20.1048 47.3126 19.5987 47.3126 19.0492V9.48356H44.4277V18.9191C44.4277 18.9914 44.3988 19.0564 44.341 19.1143C44.2831 19.1576 44.2181 19.1793 44.1458 19.1793H34.8187C34.7464 19.1793 34.6813 19.1576 34.6235 19.1143C34.5801 19.0564 34.5584 18.9914 34.5584 18.9191V6.88043H36.0331ZM19.111 22.0642V9.48356H20.8897V22.0642H19.111ZM19.111 7.14095V5.3623H20.8897V7.14095H19.111ZM4 22.0642V6.44684H18.2509V8.2038H5.75695V13.3662H15.7998V15.1449H5.75695V22.0642H4ZM24.4905 21.7172C24.8954 21.9485 25.3437 22.0642 25.8353 22.0642H30.4338V20.2856H25.8353C25.604 20.2856 25.4015 20.206 25.228 20.047C25.0689 19.8734 24.9894 19.671 24.9894 19.4396V11.2622H30.4338V9.48356H24.9894V5.3623H23.2108V19.4396C23.2108 19.9168 23.3264 20.3579 23.5578 20.7628C23.7892 21.1532 24.1001 21.4713 24.4905 21.7172ZM49.2241 9.48356V27.0531H52.0656V22.0642H59.0067C59.5562 22.0642 60.0551 21.9268 60.5033 21.6521C60.9661 21.3773 61.3276 21.0158 61.5879 20.5676C61.8626 20.1193 62 19.6204 62 19.0709V12.4769C62 11.9274 61.8626 11.4285 61.5879 10.9802C61.3276 10.5319 60.9661 10.1704 60.5033 9.89568C60.0551 9.62093 59.5562 9.48356 59.0067 9.48356H49.2241ZM58.8982 19.2227H52.3259C52.2536 19.2227 52.1885 19.201 52.1307 19.1576C52.0873 19.0998 52.0656 19.0347 52.0656 18.9624V12.5853C52.0656 12.513 52.0873 12.4552 52.1307 12.4118C52.1885 12.354 52.2536 12.325 52.3259 12.325H58.8982C58.9705 12.325 59.0284 12.354 59.0717 12.4118C59.1296 12.4552 59.1585 12.513 59.1585 12.5853V18.9624C59.1585 19.0347 59.1296 19.0998 59.0717 19.1576C59.0284 19.201 58.9705 19.2227 58.8982 19.2227Z" fill="white"/>
</svg>
